<svg xmlns="http://www.w3.org/2000/svg" data-name="Layer 1" viewBox="0 0 1058 434.7">
  <path fill="#e6e6e6" d="m643.5 221.7 61.9-61.7-61.9-61.8 18.8-18.8 80.9 80.6-80.9 80.5-18.8-18.8zm-176.9-86.5h25.2v25.2h-25.2zm101.2 0H593v25.2h-25.2zm-50.6 0h25.2v25.2h-25.2zm-84.7 85.9-62-61.8 61.9-61.7-18.9-18.8-80.7 80.5 80.8 80.6 18.9-18.8z" style="isolation:isolate"/>
  <path fill="#00bfa6" d="m643.5 209.8 61.9-61.8-61.9-61.7 18.8-18.8 80.9 80.5-80.9 80.6-18.8-18.8zm-176.9-57.4h25.2v-25.2h-25.2ZM593 127.2h-25.2v25.2H593Zm-75.8 25.2h25.2v-25.2h-25.2Zm-84.7 56.7-62-61.7 61.9-61.8-18.9-18.8-80.7 80.6 80.8 80.6 18.9-18.9z"/>
  <path fill="#a0616a" d="m129.3 410.4 14.1 3.5 19.8-52.8-20.8-5-13.1 54.3z"/>
  <path fill="#2f2e41" d="m122.6 423.1 4.4-17.9 27.5 6.7a18 18 0 0 1 13.3 21.7v.4Z"/>
  <path fill="#a0616a" d="m191.7 420.1 14.5-.1 6.9-55.9h-21.4v56z"/>
  <path fill="#2f2e41" d="M188.2 415.5h28.4a18 18 0 0 1 18 18v.4h-46.4Zm.1-14.8 2.4-87-3.2-35.3-6.3 27.2-27.4 89.2-23.6-6.2 27.4-96.2-6-61.8 17-11h.3l58.3 10.8L213 398.2Z"/>
  <path fill="#ccc" d="M211.4 242.5c-4.7 0-10.2-1.5-16.3-5.8-19.6-13.8-42.9 1-43.1 1.2l-1 .6v-1c0-.9 2.4-80.8 2.4-106.5 0-26.6 17.4-46 22.7-51.3 5.2-5.2 9.6-5 15.1-5l3 .1c7.3 0 14.3 7 14.6 7.3l.2.1v.2L229.1 234l-.1.2c-.1.2-6.7 8.3-17.6 8.3Z"/>
  <circle cx="268.3" cy="269.4" r="29" fill="#a0616a" transform="rotate(-61.3 36.7 213)"/>
  <path fill="#a0616a" d="M241.8 266.8a11.9 11.9 0 0 1-.7-18.2l-16.5-39 21.6 4 12.3 36.4a12 12 0 0 1-16.7 16.8Z"/>
  <path fill="#ccc" d="m237.1 244.7-29.8-60.8-13-45.8V98.3c0-.1 3-15.6 14.4-14.5 10.4 1 16 6 18.6 16.9 2.3 9.2-.8 36.5-1.1 39 2 4.8 32 76.2 27 84.8a2.2 2.2 0 0 1-.8.8l5.3 11.3Z"/>
  <path fill="#2f2e41" d="M193.6 47.7c3.5.5 6.1-3 7.3-6.4s2.2-7 5.2-8.9c4.1-2.4 9.4.5 14.2-.3 5.3-.9 8.8-6.5 9-12s-1.8-10.6-4-15.6l-.7 6.2A12.3 12.3 0 0 0 219.2 0l1 9.1a9.7 9.7 0 0 0-11.1-8l.1 5.4c-6.1-.7-12.4-1.4-18.6-.9s-12.4 2.5-17 6.6c-7 6.1-9.6 16.1-8.8 25.4s4.7 18 8.7 26.3c1 2.2 2.4 4.5 4.7 4.8 2 .3 4-1.5 4.6-3.5a12.7 12.7 0 0 0 0-6.2c-.6-3.1-1.3-6.3-.8-9.5s2.8-6.2 6-6.6 6.3 3.3 4.8 6Z"/>
  <path fill="#ffb8b8" d="M912.6 263a10 10 0 0 1 2.3-15.3l-7.4-35 17.3 6.8 4.4 32.2a10.1 10.1 0 0 1-16.6 11.3Z"/>
  <path fill="#ccc" d="M910.6 235.7v-.4c-9.4-34.5-19-70.3-30.9-109.2v-.2l.2-.2a23.5 23.5 0 0 1 23 .6 17.2 17.2 0 0 1 7.4 18.2l8.6 44.9a6634 6634 0 0 1 10.6 44.8l.1.4h-.5l-18 1Z"/>
  <path fill="#ffb8b8" d="M831.2 421.7h-12.3l-5.8-47.2h18.1v47.2z"/>
  <path fill="#2f2e41" d="M834.3 433.6h-39.5v-.5a15.4 15.4 0 0 1 15.4-15.4h24.1Z"/>
  <path fill="#ffb8b8" d="m946.7 411.6-11.7 3.8-19.9-43.3 17.3-5.5 14.3 45z"/>
  <path fill="#2f2e41" d="m915.6 434-.1-.5a15.4 15.4 0 0 1 10-19.3l23-7.3 4.8 15.1Z"/>
  <circle cx="884.7" cy="69.9" r="24.6" fill="#ffb8b8"/>
  <path fill="#2f2e41" d="M895.7 65.3c.1-9.9-4-19.7-10.4-24.6a16.6 16.6 0 0 0-21.2.3 31.9 31.9 0 0 0-9.9 25c14.2.1 28.3.1 41.5-.7Zm-57.5 341.2h-.5c-10.7-1-21.7-2.2-32.1-2.3h-.6v-.5c2.6-18 3.6-36.5 4.6-54.5 1-17.8 2-36.1 4.5-53.6l3-13.8c8.2-38 15.9-74 31.8-109.6l.2-.3h.4c15 1.8 29.3 7.3 40.5 15.4l.2.2v.2c-.2 5.6-.5 11.3-.1 16.5a55.8 55.8 0 0 1 8 49.3l13.5 44.8 34.8 95 .2.6-.5.1c-8.6 2-17.5 4.1-26.2 5h-.4l-.1-.3a712.9 712.9 0 0 1-54.1-130.1c-3 9-7.3 17.3-11.4 25.3a189 189 0 0 0-10.5 22.4 532 532 0 0 0-2.8 47.3c-.5 15-.9 29.1-2.4 42.4Z"/>
  <path fill="#2f2e41" d="M876.3 41.1c10.6-2.3 22.4 0 30.8 7.1s12.6 19.6 9.1 30.3-15 18.1-25.6 15.4c3-8.5-.4-19-7.8-23.9-8.7-5.8-11.1-19.7-6.5-28.9Z"/>
  <path fill="#ccc" d="m889.2 188.4-.4-.2a446 446 0 0 0-39.4-15.3h-.3v-1.2l.2.1.2-.4.4-.8 2.6-6.1c.9-2 1.7-4.2 2.8-6.4a19.4 19.4 0 0 1-4.3-20.8 21.9 21.9 0 0 1 17.2-12.5c2.7-7.5 8.7-23.1 8.7-23.1s12.7-.4 17.8-1h.2c11.1 2.4 20.4 13 22.6 25.6 1.8 10.7-1 22.9-7.9 34.4a148 148 0 0 1-11.7 16c-3 4-6 7.6-8.5 11.3Z"/>
  <path fill="#2f2e41" d="M913.3 57.9Zm.5-2.2c-7.5-1.1-13.3-8.7-12.5-16.2s8.3-13.6 15.8-13 13.9 7.7 13.6 15.2-7.4 15.4-17 14Z"/>
  <path fill="#2f2e41" d="M912.6 50.8a15.3 15.3 0 0 1-12.4-16.2A15.2 15.2 0 0 1 909 23c-6 1.3-11.2 6.5-12 12.7-.8 7.5 5 15.1 12.5 16.2a14.2 14.2 0 0 0 8.2-1.1 14.5 14.5 0 0 1-5.2.1Z"/>
  <path fill="#ffb8b8" d="M768 182.8a10 10 0 0 1 15.2-2.8l30.5-18.7-.6 18.6-28.9 14.8a10.1 10.1 0 0 1-16.1-11.9Z"/>
  <path fill="#ccc" d="m793.1 171.9.3-.2c29.5-20.4 60-41.4 92.7-65.5l.3-.1.2.2a23.3 23.3 0 0 1 7 21.8 17.2 17.2 0 0 1-14.6 13.1l-39.4 23-38.7 25-.4.2-.2-.5-7-16.6Z"/>
  <path fill="#3f3d56" d="M382 434.7H1a1 1 0 0 1 0-2h381a1 1 0 1 1 0 2Zm675 0H676a1 1 0 0 1 0-2h381a1 1 0 0 1 0 2Z"/>
</svg>