<svg xmlns="http://www.w3.org/2000/svg" data-name="Layer 1" viewBox="0 0 936.1 505.3"><path fill="#e4e4e4" d="m59.3 422-3 14.7a146 146 0 0 1-.6 3.3 14.3 14.3 0 0 0-7.4.5 68.5 68.5 0 0 1 5 8.4 31 31 0 0 1-9 14.7 22.7 22.7 0 0 1-22 3.8l.2-.5c-4.9-9.5-2.2-21.4 3.8-30a58.4 58.4 0 0 1 10.9-11.5c4-3.4 8.5-6.5 12.8-9.5a6 6 0 0 1 9.3 6.1Z"/><path fill="#f2f2f2" d="M23.4 502.7c-1.2-9-2.5-18-1.6-27 .7-8.1 3.2-16 8.2-22.4a37.1 37.1 0 0 1 9.5-8.6c1-.6 1.8.9.9 1.5a35.3 35.3 0 0 0-14 16.8c-3 7.8-3.5 16.2-3 24.4.3 5 1 9.9 1.7 14.8a.9.9 0 0 1-.6 1.1.9.9 0 0 1-1-.6Z" data-name="a4b268fa-75d0-4ac1-9d87-14bdca948464-2189"/><path fill="#e6e6e6" d="M34 53.6q64.2-1 128.5-.3 64.2.8 128.5 3.5 36 1.6 72 3.7c2 .1 2-2.9 0-3q-64.2-3.8-128.4-5.7Q170.4 50 106.1 50q-36 0-72.1.6c-2 0-2 3 0 3Zm298.5-18.8 18.7-1.4c2-.1 2-3.1 0-3l-18.7 1.4c-2 .2-2 3.2 0 3Zm0 18 18.7-1.4c2-.1 2-3.1 0-3l-18.7 1.4c-2 .2-2 3.2 0 3Zm-1.5-8.2 26.7 2.4c2 .2 2-2.8 0-3l-26.6-2.4c-2-.2-2 2.8 0 3ZM45 30.8a6.6 6.6 0 0 0-6.1 4 6 6 0 0 0 1.4 7 7.1 7.1 0 0 0 6.7 1.5 6 6 0 0 0 4-5.7 6.7 6.7 0 0 0-4.1-6.5 1.5 1.5 0 0 0-1.9 1 1.5 1.5 0 0 0 1 2c.3 0-.2-.2 0 0l.4.1.2.2c.3.1-.1-.2 0 0l.5.4.1.1c-.1 0 0 0 0 0l.1.2a5.3 5.3 0 0 1 .3.6c.1.2.2.2.1 0-.1 0 0 0 0 0v.3a5.8 5.8 0 0 1 .2.6l.1.3c0 .3 0-.2 0 0V38a2.8 2.8 0 0 0-.1.6l-.1.3c-.1.3.1-.2 0 0a5.5 5.5 0 0 1-.3.6l-.1.1c.2-.1 0 .1-.1.2l-.3.2a1.7 1.7 0 0 1-.1.1s.2-.2.1 0l-.5.2-.3.2s.3-.1.1 0h-.1a4.9 4.9 0 0 1-.6.1h-.2c-.1.1.2 0 .2 0a1.3 1.3 0 0 0-.4 0 5.6 5.6 0 0 1-.6 0h-.2s-.2 0 0 0c.1.1.1 0 0 0h-.1a5.8 5.8 0 0 1-.7-.1l-.3-.1a.9.9 0 0 1-.1 0h.1l-.6-.3-.3-.2c0-.1.2.1 0 0l-.4-.4-.1-.1q-.2-.2 0 0l-.1-.2a3.1 3.1 0 0 1-.3-.5s0 .3 0 0v-.1l-.2-.3v-.4.2V37v.1a.5.5 0 0 1 0-.2v-.3l.2-.4V36c.1-.2 0 .2 0 0l.5-.7.1-.2.2-.2.6-.5c0-.1-.1 0-.1 0h.1l.4-.3.3-.2c.2 0 0 0 0 0a1.1 1.1 0 0 1 .1 0c.1 0 .7-.3.8-.2h-.1.6a1.5 1.5 0 0 0 1.5-1.5 1.5 1.5 0 0 0-1.5-1.5Zm21 0a6.6 6.6 0 0 0-6.1 4 6 6 0 0 0 1.4 7 7.1 7.1 0 0 0 6.7 1.5 6 6 0 0 0 4-5.7 6.7 6.7 0 0 0-4.1-6.5 1.5 1.5 0 0 0-1.9 1 1.5 1.5 0 0 0 1 2c.3 0-.2-.2 0 0l.4.1.2.2c.3.1-.1-.2 0 0l.5.4.1.1c-.1 0 0 0 0 0l.1.2a5.3 5.3 0 0 1 .3.6c.1.2.2.2.1 0-.1 0 0 0 0 0v.3a5.8 5.8 0 0 1 .2.6l.1.3c0 .3 0-.2 0 0V38a2.8 2.8 0 0 0-.1.6l-.1.3c-.1.3.1-.2 0 0a5.5 5.5 0 0 1-.3.6l-.1.1c.2-.1 0 .1-.1.2l-.3.2a1.7 1.7 0 0 1-.1.1s.2-.2.1 0l-.5.2-.3.2s.3-.1.1 0h-.1a4.9 4.9 0 0 1-.6.1h-.2c-.1.1.2 0 .2 0a1.3 1.3 0 0 0-.4 0 5.6 5.6 0 0 1-.6 0h-.2s-.2 0 0 0c.1.1.1 0 0 0h-.1a5.8 5.8 0 0 1-.7-.1l-.3-.1a.9.9 0 0 1-.1 0h.1l-.6-.3-.3-.2c0-.1.2.1 0 0l-.4-.4-.1-.1q-.2-.2 0 0l-.1-.2a3.1 3.1 0 0 1-.3-.5s0 .3 0 0v-.1l-.2-.3v-.4.2V37v.1a.5.5 0 0 1 0-.2v-.3l.2-.4V36c.1-.2 0 .2 0 0l.5-.7.1-.2.2-.2.6-.5c0-.1-.1 0-.1 0h.1l.4-.3.3-.2c.2 0 0 0 0 0a1.1 1.1 0 0 1 .1 0c.1 0 .7-.3.8-.2h-.1.6a1.5 1.5 0 0 0 1.5-1.5 1.5 1.5 0 0 0-1.5-1.5Zm21 0a6.6 6.6 0 0 0-6.1 4 6 6 0 0 0 1.4 7 7.1 7.1 0 0 0 6.7 1.5 6 6 0 0 0 4-5.7 6.7 6.7 0 0 0-4.1-6.5 1.5 1.5 0 0 0-1.9 1 1.5 1.5 0 0 0 1 2c.3 0-.2-.2 0 0l.4.1.2.2c.3.1-.1-.2 0 0l.5.4.1.1c-.1 0 0 0 0 0l.1.2a5.3 5.3 0 0 1 .3.6c.1.2.2.2.1 0-.1 0 0 0 0 0v.3a5.8 5.8 0 0 1 .2.6l.1.3c0 .3 0-.2 0 0V38a2.8 2.8 0 0 0-.1.6l-.1.3c-.1.3.1-.2 0 0a5.5 5.5 0 0 1-.3.6l-.1.1"/><path fill="#e6e6e6" d="M390.4 363H22.5A17.6 17.6 0 0 1 5 345.5v-328A17.6 17.6 0 0 1 22.5 0h368A17.6 17.6 0 0 1 408 17.5v328a17.6 17.6 0 0 1-17.6 17.5ZM22.5 2A15.6 15.6 0 0 0 7 17.5v328A15.6 15.6 0 0 0 22.5 361h368a15.6 15.6 0 0 0 15.5-15.5v-328A15.6 15.6 0 0 0 390.4 2Z"/><path fill="#e6e6e6" d="m21.9 223.1 129.4-.4 128.7-.4 72.6-.2a1.5 1.5 0 0 0 0-3l-129.4.4-128.7.4-72.6.2a1.5 1.5 0 0 0 0 3Z"/><path fill="#e6e6e6" d="m87.2 220.7.8-47.3c0-1.9-3-1.9-3 0l-.8 47.3c0 2 3 2 3 0Zm61.8.5 2-59.4.5-17c0-1.9-3-1.9-3 0l-2 59.4-.5 17c0 2 3 2 3 0Zm61.7-104.5c-1.2 21-3.4 83-4.6 104 0 2 3 2 3 0 1.2-21 3.4-83 4.6-104 0-2-3-2-3 0Zm61.3 83-.3 20.2c0 2 3 2 3 0 .4-23.9 1.5-23 1.6-29.8 0-2-3-2-3 0 0 0-.8-14.3-1.3 9.6Zm60.2-53.1.3 56.7v16.2a1.5 1.5 0 0 0 3 0l-.2-56.7-.1-16.2a1.5 1.5 0 0 0-3 0Z"/><path fill="#e6e6e6" d="M22.1 221.4c-2.4-6.8 3.2-13.4 8.9-16.3 6.9-3.6 14.8-4.4 21.8-7.8 10.4-5 18-14.1 24.7-23.3 6.9-9.4 13.2-19.4 22-27.2a44.2 44.2 0 0 1 16-9.3 55.4 55.4 0 0 1 23.3-1.6c16 2 30.9 8.6 46.3 12.8 14.6 4 30.7 6.2 45 0 7.2-3.1 13.2-8.4 19.5-13a65.3 65.3 0 0 1 20.5-9.8 61 61 0 0 1 43.4 3.8 58.2 58.2 0 0 1 27.4 29c6.4 15.2 5.5 32.1 3.5 48l-1.8 12.4c-.3 1.8 2.6 2.7 2.9.8 2.5-16.5 5.1-33.4 1.9-50a60.5 60.5 0 0 0-22.3-36.3 62 62 0 0 0-41-13 67 67 0 0 0-22.4 5 93 93 0 0 0-20.1 12.5 53 53 0 0 1-21.5 10.6 64 64 0 0 1-24-.5c-16.2-3-31.3-10-47.4-13.6-15-3.3-31-3.6-44.4 4.8a93.8 93.8 0 0 0-24.5 26.3c-6.9 9.6-13.9 19.9-24 26.5-6.1 4-13 5.4-20 7.7-6.8 2.3-13.5 6-16.3 13.2a12.8 12.8 0 0 0-.3 9.1c.7 1.8 3.6 1 3-.8Zm64.1-54.5z"/><path fill="#e6e6e6" d="M91.4 164.1a6 6 0 0 0-7.3-2.6 5.2 5.2 0 0 0-3 2.8v.4l-.3.3a6 6 0 0 0 9.3 7.1 6.4 6.4 0 0 0 1.3-8Zm-3.8 2.6s0 .1 0 0Zm-.4-.9Zm-1.6.7Zm.3.3c.1 0 .1 0 0 0Zm.2.1c.3 0 .1 0 0 0a.7.7 0 0 0-.2 0c0-.1-.3-.4 0-.1l-.3-.2-.1-.3v-.1a.6.6 0 0 0 0-.2l.1-.2c-.2.3.1 0 .1 0l.2-.2c.1 0 .4-.1.1 0l.2-.1h.7l.2.2c-.3-.2 0 0 0 0l.2.2.2.3a2.4 2.4 0 0 0 .1.5v.2a1.6 1.6 0 0 0-1.5 0Zm.1 0Zm0 0Zm0 0Zm0 0zm64-28zm5.2-2.8a6 6 0 0 0-7.3-2.6 5.2 5.2 0 0 0-3 2.8v.4l-.3.3a6 6 0 0 0 9.3 7.1 6.4 6.4 0 0 0 1.3-8Zm-3.8 2.6s0 .1 0 0Zm-.4-.9Zm-1.6.7Zm.3.3c.1 0 .1 0 0 0Zm.2.1c.3 0 .1 0 0 0a.7.7 0 0 0-.2 0c0-.1-.3-.4 0-.1l-.3-.2-.1-.3v-.1a.6.6 0 0 0 0-.2l.1-.2c-.2.3.1 0 .1 0l.2-.2c.1 0 .4-.1.1 0l.2-.1h.7l.2.2c-.3-.2 0 0 0 0l.2.2.2.3a2.4 2.4 0 0 0 .1.5v.2a1.6 1.6 0 0 0-1.5 0Zm.1 0Zm0 0zm0 0Zm0 0Zm62 14zm5.2-44.8a6 6 0 0 0-7.3-2.6 5.2 5.2 0 0 0-3 2.8v.4l-.3.3a6 6 0 0 0 9.3 7.1 6.4 6.4 0 0 0 1.3-8Zm-3.8 2.6s0 .1 0 0Zm-.4-.9Zm-1.6.7Zm.3.3c.1 0 .1 0 0 0Zm.2.1c.3 0 .1 0 0 0a.7.7 0 0 0-.2 0c0-.1-.3-.4 0-.1l-.3-.2-.1-.3v-.1a.6.6 0 0 0 0-.2l.1-.2c-.2.3.1 0 .1 0l.2-.2c.1 0 .4-.1.1 0l.2-.1h.7l.2.2c-.3-.2 0 0 0 0l.2.2.2.3a2.4 2.4 0 0 0 .1.5v.2a1.6 1.6 0 0 0-1.5 0Zm.1 42zm0 0Zm0 0Zm0 0Zm68.2 32.2a6 6 0 0 0-7.3-2.6 5.2 5.2 0 0 0-3 2.8v.4l-.3.3a6 6 0 0 0 9.3 7.1 6.4 6.4 0 0 0 1.3-8Zm-3.8 2.6s0 .1 0 0Zm-.4-.9Zm-1.6.7Zm.3.3c.1 0 .1 0 0 0Zm.2.1c.3 0 .1 0 0 0a.7.7 0 0 0-.2 0c0-.1-.3-.4 0-.1l-.3-.2-.1-.3v-.1a.6.6 0 0 0 0-.2l.1-.2c-.2.3.1 0 .1 0l.2-.2c.1 0 .4-.1.1 0l.2-.1h.7l.2.2c-.3-.2 0 0 0 0l.2.2.2.3a2.4 2.4 0 0 0 .1.5v.2a1.6 1.6 0 0 0-1.5 0Zm.1-66zm0 0Zm0 0Zm0 0Zm0 0zm59 20Zm5.2-2.8a6 6 0 0 0-7.3-2.6 5.2 5.2 0 0 0-3 2.8v.4l-.3.3a6 6 0 0 0 9.3 7.1 6.4 6.4 0 0 0 1.3-8Zm-3.8 2.6s0 .1 0 0Zm-.4-.9Zm-1.6.7Zm.3.3c.1 0 .1 0 0 0Zm.2.1c.3 0 .1 0 0 0a.7.7 0 0 0-.2 0c0-.1-.3-.4 0-.1l-.3-.2-.1-.3v-.1a.6.6 0 0 0 0-.2l.1-.2c-.2.3.1 0 .1 0l.2-.2c.1 0 .4-.1.1 0l.2-.1h.7l.2.2c-.3-.2 0 0 0 0l.2.2.2.3a2.4 2.4 0 0 0 .1.5v.2a1.6 1.6 0 0 0-1.5 0Zm.1 0zm0 0zm0 0Zm0 0Z"/><path fill="#3f3d56" d="m318 187.7-46.5 2.6a1 1 0 0 1-.2-2l47.5-7.8Z"/><path fill="#ffb6b6" d="m377 291.2 17.6-29.4 13 6-23 28.8a6.9 6.9 0 1 1-7.5-5.4Z"/><path fill="#6c63ff" d="m384.4 222.8 28.4 14.8a15.7 15.7 0 0 1 2.6 23L396 283.2l-8.6-11.5 6.6-13.8-12.7-3.3Z"/><path fill="#ffb6b6" d="m303.5 188.2-3.2 34.2H286l8.5-35.8a6.9 6.9 0 1 1 9 1.6Z"/><path fill="#6c63ff" d="m332 258-33-6c-13.9-1.7-19.5-10.8-17-19.7l8-28.7 12.7 6.8v15.2l17.6-2.4Z"/><path fill="#ffb6b6" d="M318.5 494h-9.1l-4.3-35h13.4v35z"/><path fill="#2f2e41" d="M318.8 503.4H291v-.3a10.8 10.8 0 0 1 10.9-10.9l5-3.8 9.6 3.8h2.4Z"/><path fill="#ffb6b6" d="M382.6 494h9.1l4.3-35h-13.4v35z"/><path fill="#2f2e41" d="M382.3 503.4h27.9v-.3a10.8 10.8 0 0 0-10.9-10.9l-5-3.8-9.6 3.8h-2.4Zm-77.6-70.1 1.2-13 2.6-23.4 4.5-62 4-16.3 19.8 7.7 16-7.7 19.2 6.1 14.9 5.6.1 5.3c.2 3.8.5 8.4 1 9.6 1.2 2.1.9 13.5.9 13.5s1 23.3 2.4 25.8 1.6 8 1.2 9 1.3 29 1.3 29 4.5 49.4 1.7 56.8S382 482 382 482"/><path fill="#6c63ff" d="M319.5 266.1 317 299l-3.8 3.9a3.7 3.7 0 0 0 .2 5.3l-2.1 3.6-.7 11.3a6.2 6.2 0 0 0 5.7 7.6l65.6 3a6.2 6.2 0 0 0 6.4-6.9l-5.6-42v-3.1l-2.5-6.1 1.3-20.3 3-32.3-17.4-4.5-9.4-6.5-16.4.3-9.9 8.2-13.2 2-10 2-1.3 2.8 2.6-.6 9.2 36Z"/><circle cx="349.2" cy="188.4" r="19.3" fill="#ffb6b6"/><path fill="#2f2e41" d="m344.5 206.4 14-.7c1.7-.1 3.7-.3 5-1.5a7.6 7.6 0 0 0 1.5-2.6l3.9-9c1.7-4.1 3.4-8.5 3-13a8.3 8.3 0 0 0-2.4-5.4 4.6 4.6 0 0 0-5.6-.6 9.5 9.5 0 0 0-4.7-6.8 14.5 14.5 0 0 0-8.3-1.8 20 20 0 0 0-11.3 4.5 24.6 24.6 0 0 1-3 2.3 4.5 4.5 0 0 1-3.5.7 2.6 2.6 0 0 1-1.9-2.8 5 5 0 0 0-1.2 6.5 4.5 4.5 0 0 1-4.5-.6 5.4 5.4 0 1 0 5.7 9.2c.9 1.2.6 2.8.5 4.3s.2 3.2 1.6 3.6c2 .6 3.5-2 5.4-2a3 3 0 0 1 2.4 1.6 8.7 8.7 0 0 1 .9 2.7l2.5 11.3"/><path fill="#e6e6e6" d="M887.3 379.6c0-3-1-5.4-2.3-5.4H549.7c-1.3 0-2.3 2.5-2.3 5.4v122.8a1.1 1.1 0 0 1-1 1.2l-2.7.2-1.5.1-.8-1.4a1.1 1.1 0 0 1 0-.5V370a31.7 31.7 0 0 1 .4-3.3c1-5.2 3-8.7 5.5-8.7h340a2.6 2.6 0 0 1 1.1.2 4 4 0 0 1 1.3 1 7.8 7.8 0 0 1 1.2 1.6 22.3 22.3 0 0 1 2.4 8.9v2.8l.2 12v7l.2 22.4v7.9l.3 81.4a1.1 1.1 0 0 1-1.2 1h-4.4a1.1 1.1 0 0 1-1.1-1Z"/><path fill="#ccc" d="M796.1 302.3H760a2 2 0 0 0-2 2v57h40v-57a2 2 0 0 0-1.9-2Zm-18 32.4a4.3 4.3 0 0 1-4.2-4.2v-6.6a4.3 4.3 0 0 1 8.6 0v6.6a4.3 4.3 0 0 1-4.3 4.2Z"/><path fill="#3f3d56" d="M758 359.5v5.5a1 1 0 0 0 1 1h38.1a1 1 0 0 0 1-1v-5.5Z"/><path fill="#e6e6e6" d="M856 213.2H701.5a5 5 0 0 0-5 5v104.3a5 5 0 0 0 5 5H856a5 5 0 0 0 5-5V218.2a5 5 0 0 0-5-5Z"/><path fill="#fff" d="M854.7 216.8H702.8a2.7 2.7 0 0 0-2.7 2.7v101.7a2.7 2.7 0 0 0 2.7 2.6h151.9a2.7 2.7 0 0 0 2.7-2.6V219.5a2.7 2.7 0 0 0-2.7-2.7Z"/><path fill="#ccc" d="M825.1 368h-90.4a1.7 1.7 0 0 1-1.6-2l1.4-6.7a1.7 1.7 0 0 1 1.6-1.3h87.6a1.7 1.7 0 0 1 1.6 1.3l1.4 6.7a1.7 1.7 0 0 1-1.6 2Z"/><rect width="2.8" height="1.7" x="736.8" y="359.2" fill="#e6e6e6" rx=".5"/><rect width="2.8" height="1.7" x="742.3" y="359.2" fill="#e6e6e6" rx=".5"/><rect width="2.8" height="1.7" x="747.9" y="359.2" fill="#e6e6e6" rx=".5"/><rect width="2.8" height="1.7" x="753.5" y="359.2" fill="#e6e6e6" rx=".5"/><rect width="2.8" height="1.7" x="759" y="359.2" fill="#e6e6e6" rx=".5"/><rect width="2.8" height="1.7" x="764.6" y="359.2" fill="#e6e6e6" rx=".5"/><rect width="2.8" height="1.7" x="770.2" y="359.2" fill="#e6e6e6" rx=".5"/><rect width="2.8" height="1.7" x="775.7" y="359.2" fill="#e6e6e6" rx=".5"/><rect width="2.8" height="1.7" x="781.3" y="359.2" fill="#e6e6e6" rx=".5"/><rect width="2.8" height="1.7" x="786.9" y="359.2" fill="#e6e6e6" rx=".5"/><rect width="2.8" height="1.7" x="792.4" y="359.2" fill="#e6e6e6" rx=".5"/><rect width="2.8" height="1.7" x="798" y="359.2" fill="#e6e6e6" rx=".5"/><rect width="2.8" height="1.7" x="803.6" y="359.2" fill="#e6e6e6" rx=".5"/><rect width="2.8" height="1.7" x="809.1" y="359.2" fill="#e6e6e6" rx=".5"/><rect width="2.8" height="1.7" x="814.7" y="359.2" fill="#e6e6e6" rx=".5"/><rect width="2.8" height="1.7" x="820.3" y="359.2" fill="#e6e6e6" rx=".5"/><rect width="2.8" height="1.7" x="736.7" y="362" fill="#e6e6e6" rx=".5"/><rect width="2.8" height="1.7" x="742.3" y="362" fill="#e6e6e6" rx=".5"/><rect width="2.8" height="1.7" x="747.8" y="362" fill="#e6e6e6" rx=".5"/><rect width="2.8" height="1.7" x="753.4" y="362" fill="#e6e6e6" rx=".5"/><rect width="2.8" height="1.7" x="759" y="362" fill="#e6e6e6" rx=".5"/><rect width="2.8" height="1.7" x="764.5" y="362" fill="#e6e6e6" rx=".5"/><rect width="2.8" height="1.7" x="770.1" y="362" fill="#e6e6e6" rx=".5"/><rect width="2.8" height="1.7" x="775.7" y="362" fill="#e6e6e6" rx=".5"/><rect width="2.8" height="1.7" x="781.2" y="362" fill="#e6e6e6" rx=".5"/><rect width="2.8" height="1.7" x="786.8" y="362" fill="#e6e6e6" rx=".5"/><rect width="2.8" height="1.7" x="792.4" y="362" fill="#e6e6e6" rx=".5"/><rect width="2.8" height="1.7" x="797.9" y="362" fill="#e6e6e6" rx=".5"/><rect width="2.8" height="1.7" x="803.5" y="362" fill="#e6e6e6" rx=".5"/><rect width="2.8" height="1.7" x="809.1" y="362" fill="#e6e6e6" rx=".5"/><rect width="2.8" height="1.7" x="814.6" y="362" fill="#e6e6e6" rx=".5"/><rect width="2.8" height="1.7" x="820.2" y="362" fill="#e6e6e6" rx=".5"/><rect width="22.3" height="1.7" x="763.4" y="365.3" fill="#e6e6e6" rx=".5"/><path fill="#cacaca" d="M847 230.8H705a.6.6 0 0 1 0-1h142a.6.6 0 0 1 0 1Z"/><ellipse cx="714.6" cy="223.4" fill="#ccc" rx="3.3" ry="3.4"/><ellipse cx="726" cy="223.4" fill="#ccc" rx="3.3" ry="3.4"/><ellipse cx="737.5" cy="223.4" fill="#ccc" rx="3.3" ry="3.4"/><path fill="#ccc" d="M840.2 220.9H832a.6.6 0 0 0 0 1.2h8.2a.6.6 0 0 0 0-1.2Zm0 2.3H832a.6.6 0 0 0 0 1.2h8.2a.6.6 0 0 0 0-1.2Zm0 2.3H832a.6.6 0 0 0 0 1.2h8.2a.6.6 0 0 0 0-1.2Z"/><rect width="22.6" height="4.8" x="767.3" y="261.6" fill="#6c63ff" rx="2.4"/><rect width="45.5" height="4.8" x="755.8" y="271.3" fill="#e6e6e6" rx="2.4"/><rect width="45.5" height="4.8" x="755.8" y="280.9" fill="#e6e6e6" rx="2.4"/><path fill="#ffb6b6" d="m524.7 431.4-8.2-3.9 11.3-34.2 12.1 5.8-15.2 32.3zm54.9-5.4a178.6 178.6 0 0 1-7.2 4.3l-1 .2-1.3-3.5-.6-1.6-1-2.3-1.5-4.2-8.4-22 13-3.3.5 2 .3 1 4.5 18.4 1 3.8v.1l.5 2.2.5 2 .5 2.2Z"/><path fill="#2f2e41" d="m657.1 348.4-2.5 4-4.8 7.2a17 17 0 0 1-3.2 2.3h-.2a11.7 11.7 0 0 1-2.7 1.2l-1 .2a67.8 67.8 0 0 1-10 1.6h-.4c-8.6.7-17-.4-25.8-2a430 430 0 0 1-17.8-3.8l-.3-.1a500.9 500.9 0 0 0-15.4-3.1l.2 4.3a32.3 32.3 0 0 0 2 9.6c1.3 3.8 2.3 6.8.2 13l-1 3.1a10.4 10.4 0 0 1-1.1 9.2l-.3.3 8.8 22 .5 1.5h-19.2l-13.5-27-.6-1.2v-.1l1.4-51.8v-1.4a15.8 15.8 0 0 1 6-10.6 15.2 15.2 0 0 1 11.4-3.1l4.6.6 9.4 1.2 6.6.9h.1l19.6 2.5 1.4-5.7h.2l8.2-3.1 28.5-10.4 1.9-.7.2.3.2.3a55.7 55.7 0 0 1 4.5 10.5 163.7 163.7 0 0 1 4.7 18l.2.7v.3a16.8 16.8 0 0 1-1 9.3Z"/><path fill="#2f2e41" d="m658.3 329.3-.3-1.1a82.3 82.3 0 0 0-3.3-8.4 136 136 0 0 0-5.2-10.1q-1.4-2.7-3.1-5.5l-1.8-3-.3-.4-28 3.8-10.6 1.4-.6 5.2-.1 1.3-.5 3.6-.5 4.6-15.6-2-16-2-8.6-1.2a15.2 15.2 0 0 0-11.3 3.1 15.8 15.8 0 0 0-6 10.6l-.1 1.3-8.2 19.2a124.1 124.1 0 0 0-9.1 36.1l-6 19 .9.1 12.6 1.2 3.3.3 7.4-10.7 2.3-3.8a57.2 57.2 0 0 0 3.3-6.5l15.8-37.7 3.7.6q8.3 1.3 16 2.2c16.6 1.8 31 2 43.9.4q5.4-.7 10.4-1.7l3.7-.9.8-.2a15.3 15.3 0 0 0 10.7-10 15.7 15.7 0 0 0 .4-8.8Zm-131 96.6-8.8-4.3-1.4-.7-2.2 5.5-15.5 3.4a3.7 3.7 0 0 0-.6 7l15.1 6.2 4.8-4.4-1.2 5.9 5.7 2.3 6.3-20Zm54.5-8.4.5 1.4h-.5v-1.4zm-3.1 1.7-9.3 3.2-1.4.5 2.2 5.5-8.6 13.3a3.7 3.7 0 0 0 4.5 5.4l15-6.3.5-6.4 3.2 5 5.7-2.4-9.6-18.6Z"/><path fill="#ffb6b6" d="M522.4 220.2a6.6 6.6 0 0 0 9.8 2.3l19.5 13v-12.2l-18.5-10.5a6.6 6.6 0 0 0-10.8 7.4Z"/><path fill="#ccc" d="m537 225.9 9-10.4 37.1 22 49.2-4.5a16.6 16.6 0 0 1 18 18.1 16.6 16.6 0 0 1-18 15l-55.4-5.1Z"/><path fill="#ccc" d="M651 226a36 36 0 0 0-34.8 18l-4.2 7.3c-13.5 16.5-3.7 27.8-3.1 29.5l-4.7 21.6 1 7.3.6 2.1 53.4 28c3-14.7.1-27.1-11-36.7l10.8-33.3a47 47 0 0 0-8-43.8Z"/><path fill="#6c63ff" d="M608.5 388.2h-17.1a4 4 0 0 1-4-3.4 87.2 87.2 0 0 1 0-23.5 4 4 0 0 1 3.9-3.3 21.5 21.5 0 0 1 17.3 0 3.9 3.9 0 0 1 3 1.4 4 4 0 0 1 .7 3.3 52.7 52.7 0 0 0 0 20.8 4 4 0 0 1-.8 3.3 3.9 3.9 0 0 1-3 1.4Z"/><path fill="#fff" d="M606.7 367h-14.4a.9.9 0 1 1 0-1.9h14.4a.9.9 0 1 1 0 1.8Zm0 7.1h-14.4a.9.9 0 1 1 0-1.8h14.4a.9.9 0 1 1 0 1.8Zm0 7.3h-14.4a.9.9 0 1 1 0-1.8h14.4a.9.9 0 1 1 0 1.8Z"/><path fill="#6c63ff" d="M525.5 226.2h-17.1a4 4 0 0 1-4-3.4 87.2 87.2 0 0 1 0-23.5 4 4 0 0 1 3.9-3.3 21.5 21.5 0 0 1 17.3 0 3.9 3.9 0 0 1 3 1.4 4 4 0 0 1 .7 3.3 52.7 52.7 0 0 0 0 20.8 4 4 0 0 1-.8 3.3 3.9 3.9 0 0 1-3 1.4Z"/><path fill="#fff" d="M523.7 205h-14.4a.9.9 0 1 1 0-1.9h14.4a.9.9 0 1 1 0 1.8Zm0 7.1h-14.4a.9.9 0 1 1 0-1.8h14.4a.9.9 0 1 1 0 1.8Zm0 7.3h-14.4a.9.9 0 1 1 0-1.8h14.4a.9.9 0 1 1 0 1.8Z"/><path fill="#6c63ff" d="M224.5 270.2h-17.1a4 4 0 0 1-4-3.4 87.2 87.2 0 0 1 0-23.5 4 4 0 0 1 3.9-3.3 21.5 21.5 0 0 1 17.3 0 3.9 3.9 0 0 1 3 1.4 4 4 0 0 1 .7 3.3 52.7 52.7 0 0 0 0 20.8 4 4 0 0 1-.8 3.3 3.9 3.9 0 0 1-3 1.4Z"/><path fill="#fff" d="M222.7 249h-14.4a.9.9 0 1 1 0-1.9h14.4a.9.9 0 1 1 0 1.8Zm0 7.1h-14.4a.9.9 0 1 1 0-1.8h14.4a.9.9 0 1 1 0 1.8Zm0 7.3h-14.4a.9.9 0 1 1 0-1.8h14.4a.9.9 0 1 1 0 1.8Z"/><path fill="#ffb6b6" d="M613.5 366.3a6.6 6.6 0 0 0 1.7-10l11.7-20.2-12.1.6-9.3 19.2a6.6 6.6 0 0 0 8 10.4Z"/><path fill="#ccc" d="m618.3 351.4-10.9-8.5 19.8-38.3-7.4-48.8a16.6 16.6 0 0 1 17-19.1 16.6 16.6 0 0 1 16 17.2l-1.8 55.5Z"/><path fill="#9e616a" d="M92.4 341a6.6 6.6 0 0 0-1-10.2l10.6-52.6-11.6 3.8-8.5 50.8a6.7 6.7 0 0 0 10.5 8.1Z"/><path fill="#ccc" d="m108 229.7-7.2-5.5s-6.4-.4-7.6 11.1l-3.4 34-11.1 51.4 15.3 3.4 12-55.5 7-16.4Z"/><path fill="#9e616a" d="m96.1 313.6 40.8-.7 3.4-27.9H96.1v28.6zm36.7 171.8h9.5l4.4-36.4h-13.9v36.4zm-59.1.9 9.5-.1 4.2-36.4-12.3 2.8-1.4 33.7z"/><path fill="#ffb6b6" d="m103.2 261-2.1 5.5.4 5.6 41.9 14.5-2.1-24.3-4.7-5.6-33.4 4.3z"/><circle cx="121.2" cy="196" r="14.9" fill="#9e616a"/><path fill="#2f2e41" d="m130.5 480.8 14.9-1v6.5l14.2 9.8a4 4 0 0 1-2.3 7.2h-17.7l-3.1-6.3-1.2 6.3h-6.7Zm-60 .9 15-1v6.4l14.2 9.7a4 4 0 0 1-2.2 7.2l-17.8.2-3-6.3-1.2 6.3h-6.7Zm.3-23.3 6.9-54.9 8.1-57.9c-6-11 7.5-45.6 7.5-45.6l2 .1 43 8.1a140 140 0 0 1 11.2 61.4l-1.7 92h.5a3.4 3.4 0 0 1 0 6.8h-17a3.4 3.4 0 1 1 0-6.8h.4L116.1 352l-13.2 46-15 59.9c5.4-1.4 4.6 1.8 4.6 3.6A3.4 3.4 0 0 1 89 465H72a3.4 3.4 0 0 1-1.3-6.6Z"/><path fill="#ccc" d="m90 301.8 1.3-13.6a2.7 2.7 0 0 1 2.5-2l3.1-35.8 1-23.2a3.4 3.4 0 0 1 3.3-3.3l5.7-.3a.3.3 0 0 0 .3-.3 4.8 4.8 0 0 1 4.8-4.9h17a4.5 4.5 0 0 1 4.5 4 .3.3 0 0 0 .3.3 8 8 0 0 1 8.1 6.6c2.3 13.5 7 44.2 4.7 61.2-.8 6 1 1.3 1.2 6.2a3.7 3.7 0 0 1-.9 2.7 2.6 2.6 0 0 1 1.6 3.3h.3a2.7 2.7 0 0 1-3.3 2l-44.4 6c-1.5-.4-11.5-7.4-11.1-9Z"/><path fill="#9e616a" d="M208.7 246.4a6.6 6.6 0 0 1-9.4 4l-17.2 15.7-2.2-12 16.6-13a6.7 6.7 0 0 1 12.2 5.3Z"/><path fill="#ccc" d="M148.9 234.4s-6-13.5-13.5-10.8-3.7 15.8-3.7 15.8l28.4 42.8s41-26.3 36-26.4-6.5-9.3-6.5-9.3L168 257.3l-.8-3.8-1.1 1.2-3-2.4Z"/><circle cx="638.7" cy="198.7" r="20.9" fill="#ffb6b6"/><path fill="#2f2e41" d="M705.6 229.4a18 18 0 0 1-10 7 20.8 20 77 0 0 1-5 .8 18.7 18.7 0 0 0-1.4"/><path fill="#e4e4e4" d="m901.3 277-3 14.7a146 146 0 0 1-.6 3.3 14.3 14.3 0 0 0-7.4.5 68.5 68.5 0 0 1 5 8.4 31 31 0 0 1-9 14.7 22.7 22.7 0 0 1-22 3.8l.2-.5c-4.9-9.5-2.2-21.4 3.8-30a58.4 58.4 0 0 1 10.9-11.5c4-3.4 8.5-6.5 12.8-9.5a6 6 0 0 1 9.3 6.1Z"/><path fill="#f2f2f2" d="M865.4 357.7c-1.2-9-2.5-18-1.6-27 .7-8.1 3.2-16 8.2-22.4a37.1 37.1 0 0 1 9.5-8.6c1-.6 1.8.9.9 1.5a35.3 35.3 0 0 0-14 16.8c-3 7.8-3.5 16.2-3 24.4.3 5 1 9.9 1.7 14.8a.9.9 0 0 1-.6 1.1.9.9 0 0 1-1-.6Z" data-name="a4b268fa-75d0-4ac1-9d87-14bdca948464-2189"/><path fill="#cacaca" d="m935 505-933.8.3a1.2 1.2 0 0 1 0-2.4l933.7-.3a1.2 1.2 0 0 1 0 2.4Z"/><path fill="#2f2e41" d="M103.6 186.9c-2.3 1-4.9-.6-6.8-2.2l.7.6a23.3 23.3 0 0 0-6 13.1c-.8 4.8-.8 9.8-1.9 14.5a20 20 0 0 1-7 12.5c-5.2 4-12.4 3.7-18.8 2.5h-.3a39.2 39.2 0 0 0 2.1-15.6 35.6 35.6 0 0 1-8.5 14 81.8 81.8 0 0 1-12.5-4.5c-2.6-1.2-5.4-2.8-6-5.6-.8-2.7.9-5.6 3.1-7.3s5-2.7 7.6-4c2.5-1.2 5-2.9 6-5.5 2.4-6.1-4.3-13.1-1.7-19 1.3-3 4.5-4.6 7.4-5.9a108.8 108.8 0 0 1 14-4.7c4.1-1 8.5-2 12.7-1.2s8.4 3.3 10 7.3c2.5.9 5.2 1.9 6.8 4 1.7 2.1 1.5 5.8-.9 7Z"/><path fill="#2f2e41" d="M124 179.8c-6.6-5.1-11.9-4.3-16-1-.6-.8-3.6 1.3-4.6 1l-3.5 6.7a15 15 0 0 0-2.3 8.5c-3.4 9.5 4.6 15.9 14.1 19.3a18.1 18.1 0 0 0 11.8.2l.1-1.7.7 1.4s8.7 17.9 10.8 18.7c-1.3-3.3-4.6-18.6-5.5-21.8a41 41 0 0 1 .4-15.6 24 24 0 0 0 0-7.9v-.1l2 4.1 4.6-2.9c-1.7-5-1.8-11.1-12.6-8.9Z"/></svg>