<svg xmlns="http://www.w3.org/2000/svg" data-name="Layer 1" viewBox="0 0 891.3 745.2"><ellipse cx="418.6" cy="727.2" fill="#f2f2f2" rx="352" ry="18"/><path fill="#3f3d56" d="M624.3 173h-4V63.3A63.4 63.4 0 0 0 556.9 0h-232a63.4 63.4 0 0 0-63.5 63.4v601a63.4 63.4 0 0 0 63.4 63.4H557a63.4 63.4 0 0 0 63.4-63.4V250.9h4Z"/><path fill="#fff" d="M606.8 63.8V664a47.4 47.4 0 0 1-47.3 47.4H326.3a47.4 47.4 0 0 1-47.4-47.4V64a47.4 47.4 0 0 1 47.4-47.4h28.2a22.5 22.5 0 0 0 20.9 31h133a22.5 22.5 0 0 0 20.8-31h30.3a47.4 47.4 0 0 1 47.3 47.3Z"/><path fill="#6c63ff" d="m531.7 322.6-4.8 2.3-4.4 1.9-1.7.6a89.5 89.5 0 0 1-13.6 3.7q-3.4.7-7 1.1l-5.8.5H490a89.8 89.8 0 0 1-16.7-1.5l-4.3-1a88.8 88.8 0 0 1-19.6-7.2l-1.7-.8a59 59 0 0 1-2.5-1.4l1.3-1.6a53 53 0 0 1 78.8-4.1 54.3 54.3 0 0 1 5.1 5.9l1.2 1.6Z"/><circle cx="492.1" cy="234.8" r="43.9" fill="#2f2e41"/><circle cx="642.5" cy="327.5" r="32.7" fill="#a0616a" transform="rotate(-28.7 413.8 590.8)"/><path fill="#2f2e41" d="M522.5 229.5a44.4 44.4 0 0 1-25.4 7.9 27.2 27.2 0 0 0 10.8 4.4 89.6 89.6 0 0 1-36.6.2 23.7 23.7 0 0 1-7.7-2.6 9.7 9.7 0 0 1-4.7-6.4c-.8-4.5 2.7-8.7 6.5-11.5a47.9 47.9 0 0 1 40.2-8c4.5 1.1 9 3 11.9 6.7s3.8 9.1 1 12.9Z"/><path fill="#3f3d56" d="M490.1 152.8a90 90 0 0 0-46.8 166.8l.6.3 1.4.9 2.5 1.4 1.7.8a88.8 88.8 0 0 0 19.6 7.3l4.3.9a89.8 89.8 0 0 0 16.7 1.6l4.3-.1 5.9-.5 7-1a89.5 89.5 0 0 0 13.5-3.8l1.7-.6 4.4-1.9q2.4-1 4.8-2.3a90.8 90.8 0 0 0 37-36l.1-.2a89.3 89.3 0 0 0 9.7-26.4 90 90 0 0 0-88.4-107.2Zm77.1 132.4-.2.4a88.2 88.2 0 0 1-36.5 35.4q-2.3 1.2-4.7 2.2a78.3 78.3 0 0 1-5.7 2.3 85.7 85.7 0 0 1-11.7 3.4 84.7 84.7 0 0 1-9 1.4 79.9 79.9 0 0 1-9.3.5 86.8 86.8 0 0 1-16.2-1.5 85.6 85.6 0 0 1-9.6-2.4 88.5 88.5 0 0 1-14-5.7l-1.5-.8a52.8 52.8 0 0 1-3.8-2.1l-1-.6a88 88 0 1 1 123.2-32.5Z"/><path fill="#2f2e41" d="M470 191.5c-.6-5-6.7-8-11.4-6.6s-7.9 6.3-8.8 11.2a16 16 0 0 0 2.1 12.1 11 11 0 0 0 11 4.8c4.7-1 8-5.6 8.9-10.3s0-9.6-1-14.3Zm66.9 7.1c-.5-5-6.6-8-11.3-6.6s-8 6.3-8.9 11.2a16 16 0 0 0 2.2 12.1 11 11 0 0 0 11 4.8c4.7-1 8-5.6 8.9-10.3s0-9.6-1-14.3Z"/><path fill="#fff" d="M334.6 278.7a4.5 4.5 0 0 1-3.3-1.4L281.7 223a6 6 0 0 0-4.5-2H15a15 15 0 0 1-15-15v-94.5a15 15 0 0 1 15-15h339.7a15 15 0 0 1 15 15v94.6a15 15 0 0 1-15 15h-9.6a6 6 0 0 0-6 6v47a4.5 4.5 0 0 1-2.9 4.2 4.5 4.5 0 0 1-1.6.3Z"/><path fill="#3f3d56" d="M334.6 278.7a4.5 4.5 0 0 1-3.3-1.4L281.7 223a6 6 0 0 0-4.5-2H15a15 15 0 0 1-15-15v-94.5a15 15 0 0 1 15-15h339.7a15 15 0 0 1 15 15v94.6a15 15 0 0 1-15 15h-9.6a6 6 0 0 0-6 6v47a4.5 4.5 0 0 1-2.9 4.2 4.5 4.5 0 0 1-1.6.3ZM15 98.7a13 13 0 0 0-13 13v94.5a13 13 0 0 0 13 13h262.2a8 8 0 0 1 6 2.6l49.6 54.1a2.5 2.5 0 0 0 4.3-1.7v-47a8 8 0 0 1 8-8h9.6a13 13 0 0 0 13-13v-94.6a13 13 0 0 0-13-13Z"/><circle cx="36.8" cy="125.2" r="13.1" fill="#6c63ff"/><path fill="#e6e6e6" d="M339.4 197.9h-309a7 7 0 1 1 0-14h309a7 7 0 0 1 0 14Zm-100.7-29.8H30.3a7 7 0 1 1 0-14h208.4a7 7 0 0 1 0 14Z"/><path fill="#fff" d="M555 599.4a4.5 4.5 0 0 1-2.8-4.2v-47a6 6 0 0 0-6-6h-9.6a15 15 0 0 1-15-15v-94.6a15 15 0 0 1 15-15h339.7a15 15 0 0 1 15 15v94.6a15 15 0 0 1-15 15H614a6 6 0 0 0-4.5 2l-49.6 54a4.5 4.5 0 0 1-3.3 1.5 4.5 4.5 0 0 1-1.6-.3Z"/><path fill="#3f3d56" d="M555 599.4a4.5 4.5 0 0 1-2.8-4.2v-47a6 6 0 0 0-6-6h-9.6a15 15 0 0 1-15-15v-94.6a15 15 0 0 1 15-15h339.7a15 15 0 0 1 15 15v94.6a15 15 0 0 1-15 15H614a6 6 0 0 0-4.5 2l-49.6 54a4.5 4.5 0 0 1-3.3 1.5 4.5 4.5 0 0 1-1.6-.3Zm-18.4-179.8a13 13 0 0 0-13 13v94.6a13 13 0 0 0 13 13h9.6a8 8 0 0 1 8 8v47a2.5 2.5 0 0 0 4.3 1.7l49.7-54.1a8 8 0 0 1 5.9-2.6h262.2a13 13 0 0 0 13-13v-94.6a13 13 0 0 0-13-13Z"/><path fill="#6c63ff" d="M449.2 628.7a89 89 0 0 1-93.7 1.5 54.1 54.1 0 0 1 9.4-12.6 53.4 53.4 0 0 1 84 10.5l.3.6Z"/><circle cx="398.4" cy="536.7" r="44.2" fill="#2f2e41"/><circle cx="556.8" cy="629.5" r="32.9" fill="#ffb8b8" transform="rotate(-61.3 414.4 721)"/><path fill="#2f2e41" d="M367.9 531.4a44.7 44.7 0 0 0 25.6 7.9 27.4 27.4 0 0 1-10.9 4.5 90.2 90.2 0 0 0 36.9.2 23.9 23.9 0 0 0 7.7-2.7 9.8 9.8 0 0 0 4.7-6.3c.8-4.7-2.8-8.9-6.5-11.7a48.2 48.2 0 0 0-40.5-8c-4.5 1-9 3-12 6.7s-3.8 9.2-1 13Z"/><path fill="#3f3d56" d="M401.1 643.8a90 90 0 1 1 48.6-14.2 89.9 89.9 0 0 1-48.6 14.2Zm0-178a88 88 0 1 0 88 88 88.1 88.1 0 0 0-88-88Z"/><circle cx="563.8" cy="445.2" r="13.1" fill="#6c63ff"/><path fill="#e6e6e6" d="M866.4 517.9h-309a7 7 0 1 1 0-14h309a7 7 0 0 1 0 14Zm-100.7-29.8H557.3a7 7 0 1 1 0-14h208.4a7 7 0 0 1 0 14Z"/><ellipse cx="554.6" cy="605.7" fill="#f2f2f2" rx="24.5" ry="2.7"/><ellipse cx="335.6" cy="285.7" fill="#f2f2f2" rx="24.5" ry="2.7"/></svg>