<svg xmlns="http://www.w3.org/2000/svg" data-name="Layer 1" viewBox="0 0 786.4 652">
  <path fill="#f2f2f2" d="m696.8 606.9 13.8 12.7-11-18.4c8.7-15.8 22.8-29.3 22.8-29.3s29.4 28.1 29.4 50.3-13.1 29.8-29.4 29.8c-16.2 0-29.4-7.7-29.4-29.8a38.8 38.8 0 0 1 3.8-15.3Z"/>
  <path fill="#fff" d="M714.2 620.3v1c0 12.8 2.2 22.7 6.4 29.6l.1.3.5-.2.5-.3a57.6 57.6 0 0 1-6.4-29.3v-1c0-4.7.3-9.5.8-14v-1.1a216.3 216.3 0 0 1 6.4-34l.1-.4-.5-.1-.5-.2-.3 1c-.6 2-2 7.9-3.5 15.5l-.2 1.1a201 201 0 0 0-2.2 13.5l-.4 3.5v1.1q-.8 7.5-.8 14Z"/>
  <path fill="#fff" d="m709.6 584.7-.7.9a29.8 29.8 0 0 0 8.7 2.6l1 .1a30.8 30.8 0 0 0 3.3.2 30 30 0 0 0 13.2-3l-.7-.9a29 29 0 0 1-12.5 2.8 29.8 29.8 0 0 1-3-.1l-1.1-.2a28.9 28.9 0 0 1-8.2-2.4Zm-10.2 15-.5 1a30 30 0 0 0 16 5.6h1.6a30.2 30.2 0 0 0 24.6-12.6l-.7-1a29.1 29.1 0 0 1-23.9 12.6H715a29 29 0 0 1-15.6-5.6Z"/>
  <path fill="#fff" d="m694.6 610.5-.4 1.2a30.2 30.2 0 0 0 20 9.7 26.4 26.4 0 0 0 2.3 0 30.3 30.3 0 0 0 28.7-20.7l-.7-1.3a29.2 29.2 0 0 1-28 21 30.4 30.4 0 0 1-2.3-.1 29.1 29.1 0 0 1-19.6-9.8Z"/>
  <path fill="#f2f2f2" d="m110.2 231.8-18.5 3.7 19-10c.7-18-4.4-37-4.4-37s-39.7 9-51.2 28-4.2 32.3 9.7 40.7c14 8.4 29.2 8.6 40.6-10.4a38.8 38.8 0 0 0 4.8-15Z"/>
  <path fill="#fff" d="m88.3 234.3-.5 1A58.3 58.3 0 0 1 67 257.1l-.3.2-.3-.5-.2-.5a57.6 57.6 0 0 0 21.1-22.6 147.3 147.3 0 0 0 7-13.4 216.3 216.3 0 0 0 12.2-32.4l.1-.3.5.1.6.2-.3.9c-.6 2-2.3 7.8-5 15.1l-.4 1c-1.4 4-3.2 8.3-5.1 12.7l-1.5 3.2-.5 1q-3.2 6.8-6.6 12.4Z"/>
  <path fill="#fff" d="M102.4 204a34 34 0 0 1-1-.4 29.8 29.8 0 0 1-2.7-1.4 29 29 0 0 1-9.3-9l-1 .4a30 30 0 0 0 9.7 9.5 30.8 30.8 0 0 0 2.9 1.5l1 .5a29.8 29.8 0 0 0 8.7 2.2l-.1-1.1a28.9 28.9 0 0 1-8.2-2.2Zm-7 17-1-.6-.3-.2a29.1 29.1 0 0 1-14-23l-1 .4a30.2 30.2 0 0 0 14.4 23.5 12.7 12.7 0 0 0 1.4.8 30 30 0 0 0 16.6 3.5v-1.1a29 29 0 0 1-16.1-3.4Z"/>
  <path fill="#fff" d="M88.3 234.3a26.6 26.6 0 0 1-2-1.1 29.2 29.2 0 0 1-13.1-32.5l-1.3.7a30.3 30.3 0 0 0 13.8 32.7 22.5 22.5 0 0 0 2 1.1 30.2 30.2 0 0 0 22.2 2l.3-1.2a29.1 29.1 0 0 1-21.9-1.7Z"/>
  <path fill="#f2f2f2" d="m420.8 38.4-1.5 21.1 8.6-22.7c20-3.4 41.9-.4 41.9-.4S465.6 82 446 97.7s-35.6 9.4-47-4.9c-11.5-14.3-14-31.4 5.6-47a45 45 0 0 1 16.1-7.4Z"/>
  <path fill="#fff" d="m421.2 63.2-1 .7a65.8 65.8 0 0 0-21.5 26.5l-.1.3.5.3.6.2a65 65 0 0 1 22.3-27 166.2 166.2 0 0 1 13.9-9.9A244 244 0 0 1 470.4 36l.3-.1-.2-.6-.3-.6-1 .5c-2.2 1-8.4 3.7-16.2 7.8l-1 .6a192 192 0 0 0-13.4 7.6l-3.5 2.1-1 .7q-7.1 4.6-12.9 9.2Z"/>
  <path fill="#fff" d="M449.4 34.1h-1.2a33.6 33.6 0 0 0 3.7 9.5l.7 1a34.8 34.8 0 0 0 2.1 3 34 34 0 0 0 12 9.5l.3-1.2a32.7 32.7 0 0 1-11.3-9 33.6 33.6 0 0 1-2-2.8L453 43a32.6 32.6 0 0 1-3.6-8.9ZM429 35.7l-1.2.2a34 34 0 0 0 6.3 18 43.5 43.5 0 0 0 1 1.5 34.1 34.1 0 0 0 28.5 12.8l.4-1.2a32.9 32.9 0 0 1-28-12.3l-.2-.4-.8-1a32.7 32.7 0 0 1-6.1-17.6Z"/>
  <path fill="#fff" d="m416.1 39-1.3.5a34 34 0 0 0 5.5 24.4 29.7 29.7 0 0 0 1.5 2.2 34.2 34.2 0 0 0 38.6 10.7l.7-1.6a33 33 0 0 1-38.3-9.9 34.4 34.4 0 0 1-1.6-2.1 32.9 32.9 0 0 1-5-24.2Z"/>
  <path fill="#e4e4e4" d="m196.8 425-6-.1v-1.5c2.9.1 5.8.1 8.7 0v1.5h-2.7Zm11.4-.4v-1.4l8.5-.7.2 1.4-8.7.7Zm-26.1-.2c-3-.2-5.9-.5-8.7-.9l.2-1.4 8.6.8Zm43.4-1.6-.2-1.4 8.5-1.5.3 1.4c-2.8.6-5.7 1-8.6 1.5Zm-60.8-.5c-2.8-.5-5.7-1-8.5-1.7l.3-1.4c2.8.6 5.7 1.2 8.5 1.6Zm78-3-.4-1.3 8.3-2.3.5 1.4-8.5 2.3Zm-95-.7-8.4-2.5.5-1.4c2.7 1 5.5 1.7 8.3 2.5Zm111.7-4.2-.5-1.3 8-3 .6 1.3a190 190 0 0 1-8.1 3ZM131 413.3c-2.8-1-5.5-2-8.2-3.2l.6-1.3 8 3.1Zm144.4-5.3-.6-1.4c2.6-1.1 5.3-2.4 7.8-3.7l.7 1.3-7.9 3.8Zm15.5-8-.7-1.2c2.5-1.4 5-3 7.4-4.5l.8 1.3-7.5 4.4Zm14.8-9.3-.9-1.2 7-5 .9 1-7 5.2Zm-220.8-2-7-5.3 1-1.1 6.8 5.2Zm234.6-8.6-1-1.1c2.2-1.8 4.4-3.8 6.5-5m86.4-363.1v121.5a10.9 10.9 0 0 1-10.9 10.9H224.3a10.9 10.9 0 0 1-10.9-10.9V10.9A10.9 10.9 0 0 1 224.3 0h176.2a10.9 10.9 0 0 1 10.9 10.9Z"/>
  <path fill="#fff" d="M404.5 10.7v122a3.4 3.4 0 0 1-3.4 3.3H223.7a3.4 3.4 0 0 1-3.4-3.4v-122a3.4 3.4 0 0 1 3.4-3.3H401a3.4 3.4 0 0 1 3.4 3.4Z"/>
  <path fill="#6c63ff" d="M239.9 26.7h145v3h-145zm0 9.4h145v3h-145zm0 9.5h145v3h-145z"/>
  <path fill="#e4e4e4" d="M239.9 60.7h145v3h-145zm0 9.4h145v3h-145zm0 9.5h145v3h-145zm0 15.1h145v3h-145zm0 9.4h145v3h-145zm0 9.5h145v3h-145zm-107.5 330H10.9A10.9 10.9 0 0 1 0 432.8V256.5a10.9 10.9 0 0 1 10.9-10.8h121.5a10.9 10.9 0 0 1 10.9 10.8v176.3a10.9 10.9 0 0 1-10.9 10.8Z"/>
  <path fill="#fff" d="M132.6 436.7h-122a3.4 3.4 0 0 1-3.3-3.3V255.9a3.4 3.4 0 0 1 3.4-3.3h122a3.4 3.4 0 0 1 3.3 3.3v177.5a3.4 3.4 0 0 1-3.4 3.3Z"/>
  <path fill="#e4e4e4" d="M31.4 346.4H112v3H31.4zm0 9.5H112v3H31.4zm0 9.5H112v3H31.4zm0 20.8H112v3H31.4zm0 9.5H112v3H31.4zm0 9.4H112v3H31.4z"/>
  <path fill="#6c63ff" d="M54 290.1 85.5 278l11.8 30.5-31.5 12.2z"/>
  <path fill="#3f3d56" d="m58 319.4-12.7-33 34.2-13.2 12.7 33ZM46.7 287l12 31.1L91 305.7l-12-31.2Z"/>
  <circle cx="196.8" cy="234.5" r="37.3" fill="#6c63ff"/>
  <path fill="#fff" d="M177 231.1a3.3 3.3 0 0 0 0 6.7h12.4a4 4 0 0 1 4 4v12.4a3.3 3.3 0 0 0 6.7 0v-12.4a4 4 0 0 1 4-4h12.5a3.3 3.3 0 0 0 0-6.7h-13.4 93696a4 4 0 0 1-4-4v-12.4a3.3 3.3 0 0 0-6.7 0V227a4 4 0 0 1-4 4Z"/>
  <path fill="#ffb6b6" d="M635.1 638h-13l-6.1-50.1h19.1V638z"/>
  <path fill="#2f2e41" d="M638.4 650.6h-41.8v-.5a16.3 16.3 0 0 1 16.3-16.3h25.5Z"/>
  <path fill="#ffb6b6" d="M558.1 638h-13l-6.2-50.1h19.2V638z"/>
  <path fill="#2f2e41" d="M561.4 650.6h-42v-.5a16.3 16.3 0 0 1 16.4-16.3h25.6Z"/>
  <path fill="#ffb6b6" d="M552.1 455.9a11.9 11.9 0 0 0 3.2-18l13.4-107.5-25.9 1.2-5 105.3a12 12 0 0 0 14.3 19Z"/>
  <path fill="#6c63ff" d="m568.1 349-26.7-3.8a5.3 5.3 0 0 1-4.3-6.8l7.7-25.7a14.8 14.8 0 0 1 29.3 4.3l.1 26.8a5.3 5.3 0 0 1-6.1 5.3Z"/>
  <path fill="#2f2e41" d="m552.6 421.4-8.5 7.8.6 41.2s-7.1 60-7.8 62-3.3 73.8-3.3 73.8 13.7 6.5 26.1 2.6c0 0 12.5-58.8 12.5-75.7l14.3-59.5 16.4 68.6s7.1 45 9.8 60 2.6 17 2.6 17 20.9 6 26.1 0c0 0-2.6-77-4.6-84.8l-4.5-93.4Z"/>
  <circle cx="590.8" cy="254.5" r="21.6" fill="#ffb9b9"/>
  <path fill="#6c63ff" d="m615 288 32.3 13.8-13.7 75.8s.6 39.2 2.6 69.9c1.6 25.4-96.7 0-93.4-21.6s16.3-47.6 16.3-47.6 3.3-28.8-4-41.9-2.5-28-2.5-28l28.7-19 33.8-1.3Z"/>
  <path fill="#2f2e41" d="M585.5 240.4a86.2 86.2 0 0 1 9.6-1 14.5 14.5 0 0 1 7 1c3.1 1.5 5 4.9 6.1 8.2s2 7 4.2 9.7c3.6-3.7 4.3-9.4 4.8-14.6.4-3.6.8-7.5-1-10.8a17.1 17.1 0 0 0-4.4-5c-8.3-7-18.9-12.4-29.6-10.8l-.2 1.6a29.5 29.5 0 0 0-5.5.4l.4 4-5.7.4-.2 4.3-5.8.2a6.7 6.7 0 0 0 2 4.3 8 8 0 0 1-2.9 1.4l2.9 11.1c.7 2.7.6 5.1 3.5 3.8 2.2-1 3.7-4.2 6-5.6a24.7 24.7 0 0 1 8.8-2.6Z"/>
  <path fill="#ffb6b6" d="M663.1 452.7a11.9 11.9 0 0 0-.4-18.2l-8-108-25.1 6.2L645.4 437a12 12 0 0 0 17.7 15.8Z"/>
  <path fill="#6c63ff" d="m657.8 344.9-27 1.4a5.3 5.3 0 0 1-5.5-5.8l2.5-26.8a14.8 14.8 0 0 1 29.6-1.4l5.3 26.2a5.3 5.3 0 0 1-5 6.4Z"/>
  <path fill="#cacaca" d="M785.4 651.6h-381a1 1 0 0 1 0-2h381a1 1 0 0 1 0 2Z"/>
</svg>