<svg xmlns="http://www.w3.org/2000/svg" data-name="Layer 1" viewBox="0 0 865.4 601.5">
  <path fill="#a0616a" d="M187.5 586.4H201l6.4-52h-19.9v52z"/>
  <path fill="#2f2e41" d="M184 582h26.6a17 17 0 0 1 17 16.9v.5H184Z"/>
  <path fill="#a0616a" d="M276.5 586.4H290l6.4-52h-19.9v52z"/>
  <path fill="#2f2e41" d="M273 582h26.6a17 17 0 0 1 17 16.9v.5H273Z"/>
  <path fill="#e6e6e6" d="M0 599.5h606.1v2H0z"/>
  <path fill="#2f2e41" d="M176.2 575.1h34.9l22.3-195.3 41.1 195.3H298V342.2l-112-33.5-9.8 266.4z"/>
  <circle cx="235.7" cy="106.4" r="30.4" fill="#a0616a"/>
  <path fill="#e6e6e6" d="M188.5 313.6C221 339 257.2 352 298 347c-17.2-60.5-22.3-120.6-5.7-179.8L258 151.7l-38.6-2.4-28 8.2a18.8 18.8 0 0 0-13.5 18.4c1 50.5-2.4 97.8 10.6 137.7Z"/>
  <path fill="#2f2e41" d="M206.6 91c3-5.5 6.7-16.5 12.6-18.5a47 47 0 0 1 10-2.2l10.1 3.9-5.4-4.3 3.2-.1 6.7 2.6-3.4-2.7c6.3 0 12.8.6 17.7 4.4 4.2 3.3 8.3 15.7 9 21a40.1 40.1 0 0 1-.8 15.1l-1.7 1.6a21 21 0 0 1-1.3-4.2 20.3 20.3 0 0 0-9.7-13.2h-.1a18.2 18.2 0 0 0-9.7-1.5l-15.7.6c-3.8 0-7.8.3-10.8 2.7-2 1.6-3.1 4-4.3 6.2-1.4 3-4.3 14.1-4.3 14.1s-1.6-2-2.4-.5a54 54 0 0 1-2.2-12.6 24.6 24.6 0 0 1 2.5-12.3Z"/>
  <path fill="#f0f0f0" d="M842.7 287.6H491.4a22.7 22.7 0 0 1-22.7-22.7V22.7A22.7 22.7 0 0 1 491.4 0h351.3a22.7 22.7 0 0 1 22.7 22.7v242.2a22.7 22.7 0 0 1-22.7 22.7ZM491.4 2a20.7 20.7 0 0 0-20.7 20.7v242.2a20.7 20.7 0 0 0 20.7 20.7h351.3a20.7 20.7 0 0 0 20.7-20.7V22.7A20.7 20.7 0 0 0 842.7 2Z"/>
  <path fill="#e4e4e4" d="M431.7 308V65.6A21.7 21.7 0 0 1 453.4 44h351.3a21.7 21.7 0 0 1 21.7 21.7v242.2a21.7 21.7 0 0 1-21.7 21.7H453.4a21.7 21.7 0 0 1-21.7-21.7Z"/>
  <path fill="#fff" d="M445.5 308.4V65.2a6.7 6.7 0 0 1 6.7-6.6h353.7a6.7 6.7 0 0 1 6.7 6.6v243.2a6.7 6.7 0 0 1-6.7 6.6H452.2a6.7 6.7 0 0 1-6.7-6.6Z"/>
  <circle cx="588" cy="369.9" r="9.8" fill="#e6e6e6"/>
  <circle cx="629" cy="369.9" r="9.8" fill="#e6e6e6"/>
  <circle cx="670.1" cy="369.9" r="9.8" fill="#e6e6e6"/>
  <path fill="#6c63ff" d="M629 258.3a71.5 71.5 0 1 1 71.5-71.5 71.5 71.5 0 0 1-71.5 71.5Z"/>
  <path fill="#fff" d="M657.2 179.8h-21.1v-21.2a7 7 0 0 0-14.1 0v21.2h-21.2a7 7 0 0 0 0 14H622V215a7 7 0 0 0 14 0v-21.1h21.2a7 7 0 1 0 0-14.1Z"/>
  <path fill="#e6e6e6" d="M108.4 539.8a102.5 102.5 0 0 0-9-28.9l-.6-1.3-4.8 5.3 3.5-7.9-.2-.4a188.6 188.6 0 0 0-10.4-18l-.7-1.1-.9 1 .7-1.4-.4-.5a121 121 0 0 0-8.3-11.5l-1-1.3-.7 1.5c0 .3-12 27.7-13.6 54.8v.4l8 9.7-8-5.2v1.8a79.3 79.3 0 0 0 .6 9.5l1.3 8a4.2 4.2 0 0 1 2.2.7q-.9-4.4-1.5-9c-.3-2.4-.5-4.9-.6-7.3l15.8 9.9-15.6-19a182 182 0 0 1 12.7-52c1.3 1.7 3.9 5 6.9 9.6l-5.5 12.2 7.8-8.7a186.5 186.5 0 0 1 9.3 16.3L87 525.8l11.4-12.6a100.4 100.4 0 0 1 8.1 27c2 15 1.7 29.4-1 40.6-2.6 10.7-7.2 17.3-12.5 18.1a8.5 8.5 0 0 1-3.3-.2 4.9 4.9 0 0 1-3 1h-.3a11.6 11.6 0 0 0 5.4 1.4 9.8 9.8 0 0 0 1.4-.1c6.3-1 11.4-8 14.2-19.7 2.8-11.4 3.2-26.2 1.1-41.5Z"/>
  <path fill="#e6e6e6" d="M90.8 600.3c-8.2 0-20.1-4.6-31.9-12.8a50.9 50.9 0 0 1-5-4l-1.3-1.2 5-1.4-6.6-.3-.3-.3a119.5 119.5 0 0 1-20.3-31.6l-.6-1.5 1.6.1c.2 0 3.9.2 9.5 1h.4l1.2.2a123.7 123.7 0 0 1 13.6 2.9l.5.1 1.5 3.7-.2-3.3 1.4.4a66.2 66.2 0 0 1 18.3 8.5c17.9 12.5 27.8 28.2 22.6 35.7-1.8 2.6-5.1 3.8-9.4 3.8Zm-34.1-17c1 .9 2.2 1.7 3.4 2.6 16.4 11.4 34 15.8 38.4 9.4 4.5-6.3-5.6-21.4-22-32.9a64.2 64.2 0 0 0-16.4-7.8l.9 13-5.9-14.4c-3.8-1-7.7-1.9-11.7-2.5l.7 9.4-4-10-7.2-.7c2.1 4.6 9 18.7 19 29.3l18.3.6Z"/>
  <path fill="#a0616a" d="M207.6 333.5a10.4 10.4 0 0 0-12.3-10.2L177.1 291l-7.6 15.5 17.5 29.7a10.5 10.5 0 0 0 20.6-2.7Zm81.7 35.9a10.4 10.4 0 0 1 6-14.9l.6-37 16 10.9-3.2 33.5a10.5 10.5 0 0 1-19.4 7.5Z"/>
  <path fill="#e6e6e6" d="m178.7 329 13-12.2-6.7-66.2 7.8-93.5c-16.9 5.3-35 19.5-38 37l-10.6 62.3Z"/>
  <path d="m186.3 215.1-10.6 42.5 16.1 60.3-10.4-57.1 4.9-45.7z" opacity=".2" style="isolation:isolate"/>
  <path fill="#e6e6e6" d="m291.5 352 21.2 2.4-5-157.8a36.7 36.7 0 0 0-22.5-32.7l-7.6-3.2 2 74Z"/>
  <path d="m283.5 237.1 8.2 91.1-13.9-90.5 5.7-.6z" opacity=".2" style="isolation:isolate"/>
</svg>