<svg xmlns="http://www.w3.org/2000/svg" data-name="Layer 1" viewBox="0 0 647.6 632.2"><path fill="#f2f2f2" d="M411.1 142.2H236.6a15 15 0 0 0-15 15V545l-2 .6-42.8 13.1a8 8 0 0 1-10-5.3l-127.3-416a8 8 0 0 1 5.3-10l66-20.1L302 48.8l66-20.2a8 8 0 0 1 10 5.3l32.5 106.3Z"/><path fill="#3f3d56" d="M449.2 140.2 410 12A17 17 0 0 0 388.8.8L296 29 104.8 87.7 12 116A17 17 0 0 0 .7 137.3l134.1 438a17 17 0 0 0 16.3 12 16.8 16.8 0 0 0 5-.8l63.5-19.4 2-.6v-2.1l-2 .6-64.1 19.6a15 15 0 0 1-18.8-10L2.7 136.8a15 15 0 0 1 10-18.7l92.7-28.4 191.2-58.5 92.8-28.4a15.2 15.2 0 0 1 4.4-.7A15 15 0 0 1 408 12.6l39 127.6.7 2h2Z"/><path fill="#6c63ff" d="M122.7 127.8a9 9 0 0 1-8.6-6.3l-13-42.1a9 9 0 0 1 6-11.3l176-53.8a9 9 0 0 1 11.2 6l13 42a9 9 0 0 1-6 11.3l-176 53.8a9 9 0 0 1-2.6.4Z"/><circle cx="190.2" cy="25" r="20" fill="#6c63ff"/><circle cx="190.2" cy="25" r="12.7" fill="#fff"/><path fill="#e6e6e6" d="M602.6 582.2h-338a8.5 8.5 0 0 1-8.5-8.5v-405a8.5 8.5 0 0 1 8.5-8.5h338a8.5 8.5 0 0 1 8.5 8.5v405a8.5 8.5 0 0 1-8.5 8.5Z"/><path fill="#3f3d56" d="M447.1 140.2H236.6a17 17 0 0 0-17 17V565l2-.6V157.2a15 15 0 0 1 15-15h211.2Zm183.5 0h-394a17 17 0 0 0-17 17v458a17 17 0 0 0 17 17h394a17 17 0 0 0 17-17v-458a17 17 0 0 0-17-17Zm15 475a15 15 0 0 1-15 15h-394a15 15 0 0 1-15-15v-458a15 15 0 0 1 15-15h394a15 15 0 0 1 15 15Z"/><path fill="#6c63ff" d="M525.6 184.2h-184a9 9 0 0 1-9-9v-44a9 9 0 0 1 9-9h184a9 9 0 0 1 9 9v44a9 9 0 0 1-9 9Z"/><circle cx="433.6" cy="105.2" r="20" fill="#6c63ff"/><circle cx="433.6" cy="105.2" r="12.2" fill="#fff"/></svg>