<svg viewBox="137.6004 192.4655 90 90"
    xmlns="http://www.w3.org/2000/svg">
    <g data-v-423bf9ae="" id="ba87fb41-09a6-4f49-9b23-e3e1a6674519" transform="matrix(2.8125, 0, 0, 2.8125, 137.60037231445312, 192.4654998779297)" stroke="none" fill="#14D9D9">
        <path d="M4.029 14.362L14.362 4.028l.707.707L4.736 15.07zM17.135 27.47L27.47 17.135l.707.707-10.333 10.333zM4.029 17.841l.707-.707 10.333 10.334-.707.707zM17.135 4.735l.708-.707L28.176 14.36l-.707.707z"/>
        <g>
            <path d="M16 1.414l1.683 1.683L16 4.779l-1.683-1.683L16 1.414M16 0l-3.097 3.097L16 6.194l3.097-3.097L16 0zM16 27.221l1.683 1.683L16 30.586l-1.683-1.683L16 27.221m0-1.415l-3.097 3.097L16 32l3.097-3.097L16 25.806zM3.097 14.317L4.779 16l-1.683 1.683L1.414 16l1.683-1.683m0-1.414L0 16l3.097 3.097L6.194 16l-3.097-3.097zM28.903 14.317L30.586 16l-1.683 1.683L27.221 16l1.682-1.683m0-1.414L25.806 16l3.097 3.097L32 16l-3.097-3.097z"/>
        </g>
    </g>
</svg>