<svg xmlns="http://www.w3.org/2000/svg" class="iconLeft" viewBox="0 0 351 90">
    <g id="81311f42-54bf-4790-929a-3c09abb4b4fe" fill="#fff">
        <path d="M7.87 1.40Q8.19 1.40 8.39 1.60Q8.58 1.79 8.58 2.11L8.58 2.11L8.58 8.50Q8.58 9.59 8.07 10.48Q7.56 11.37 6.69 11.88Q5.81 12.39 4.73 12.39L4.73 12.39Q3.65 12.39 2.77 11.88Q1.88 11.37 1.37 10.48Q0.87 9.59 0.87 8.50L0.87 8.50Q0.87 7.41 1.34 6.52Q1.81 5.63 2.63 5.12Q3.44 4.62 4.45 4.62L4.45 4.62Q5.26 4.62 5.96 4.96Q6.66 5.29 7.15 5.89L7.15 5.89L7.15 2.11Q7.15 1.79 7.36 1.60Q7.56 1.40 7.87 1.40L7.87 1.40ZM4.73 11.13Q5.43 11.13 6.00 10.79Q6.57 10.44 6.89 9.84Q7.21 9.24 7.21 8.50L7.21 8.50Q7.21 7.76 6.89 7.16Q6.57 6.57 6.00 6.22Q5.43 5.88 4.73 5.88L4.73 5.88Q4.03 5.88 3.46 6.22Q2.90 6.57 2.57 7.16Q2.24 7.76 2.24 8.50L2.24 8.50Q2.24 9.24 2.57 9.84Q2.90 10.44 3.46 10.79Q4.03 11.13 4.73 11.13L4.73 11.13ZM17.98 8.39Q17.98 8.65 17.79 8.83Q17.61 9.00 17.33 9.00L17.33 9.00L12.01 9.00Q12.17 9.98 12.90 10.58Q13.64 11.19 14.70 11.19L14.70 11.19Q15.12 11.19 15.58 11.03Q16.03 10.88 16.32 10.65L16.32 10.65Q16.52 10.50 16.79 10.50L16.79 10.50Q17.05 10.50 17.21 10.64L17.21 10.64Q17.46 10.85 17.46 11.12L17.46 11.12Q17.46 11.37 17.23 11.54L17.23 11.54Q16.76 11.91 16.05 12.15Q15.34 12.39 14.70 12.39L14.70 12.39Q13.55 12.39 12.64 11.89Q11.73 11.40 11.22 10.51Q10.71 9.63 10.71 8.51L10.71 8.51Q10.71 7.39 11.19 6.50Q11.68 5.61 12.54 5.12Q13.40 4.62 14.49 4.62L14.49 4.62Q15.57 4.62 16.35 5.10Q17.14 5.57 17.56 6.43Q17.98 7.28 17.98 8.39L17.98 8.39ZM14.49 5.82Q13.47 5.82 12.83 6.38Q12.19 6.94 12.03 7.88L12.03 7.88L16.69 7.88Q16.56 6.94 15.99 6.38Q15.41 5.82 14.49 5.82L14.49 5.82ZM25.41 4.77Q25.59 4.86 25.69 5.00Q25.79 5.15 25.79 5.33L25.79 5.33Q25.79 5.46 25.72 5.60L25.72 5.60L22.75 11.86Q22.54 12.32 22.11 12.32L22.11 12.32Q21.87 12.32 21.71 12.21Q21.56 12.11 21.43 11.86L21.43 11.86L18.47 5.60Q18.41 5.49 18.41 5.35L18.41 5.35Q18.41 4.97 18.80 4.77L18.80 4.77Q18.93 4.70 19.10 4.70L19.10 4.70Q19.26 4.70 19.42 4.79Q19.57 4.89 19.66 5.05L19.66 5.05L22.09 10.30L24.50 5.05Q24.58 4.89 24.75 4.79Q24.91 4.70 25.09 4.70L25.09 4.70Q25.27 4.70 25.41 4.77L25.41 4.77ZM29.88 4.62Q30.79 4.62 31.51 4.91Q32.23 5.21 32.65 5.73L32.65 5.73Q32.83 5.95 32.83 6.17L32.83 6.17Q32.83 6.41 32.59 6.61L32.59 6.61Q32.44 6.72 32.20 6.72L32.20 6.72Q31.84 6.72 31.54 6.45L31.54 6.45Q31.19 6.13 30.80 6.00Q30.41 5.87 29.85 5.87L29.85 5.87Q29.20 5.87 28.79 6.08Q28.38 6.30 28.38 6.69L28.38 6.69Q28.38 6.97 28.52 7.16Q28.66 7.35 29.05 7.51Q29.44 7.67 30.18 7.83L30.18 7.83Q31.71 8.13 32.35 8.68Q32.98 9.23 32.98 10.09L32.98 10.09Q32.98 10.74 32.63 11.26Q32.28 11.79 31.61 12.09Q30.93 12.39 29.97 12.39L29.97 12.39Q29.02 12.39 28.18 12.10Q27.34 11.80 26.87 11.33L26.87 11.33Q26.68 11.14 26.68 10.89L26.68 10.89Q26.68 10.56 26.96 10.35L26.96 10.35Q27.23 10.15 27.45 10.15L27.45 10.15Q27.73 10.15 27.99 10.40L27.99 10.40Q28.25 10.70 28.78 10.91Q29.32 11.13 29.92 11.13L29.92 11.13Q30.72 11.13 31.16 10.86Q31.60 10.60 31.60 10.15L31.60 10.15Q31.60 9.72 31.16 9.43Q30.73 9.14 29.69 8.95L29.69 8.95Q27.01 8.43 27.01 6.73L27.01 6.73Q27.01 6.05 27.41 5.57Q27.82 5.10 28.48 4.86Q29.13 4.62 29.88 4.62L29.88 4.62ZM40.64 4.75Q41.08 4.91 41.08 5.29L41.08 5.29Q41.08 5.43 40.99 5.63L40.99 5.63L36.71 15.26Q36.54 15.69 36.16 15.69L36.16 15.69Q36.02 15.69 35.83 15.61L35.83 15.61Q35.41 15.43 35.41 15.06L35.41 15.06Q35.41 14.90 35.49 14.73L35.49 14.73L36.89 11.58L33.74 5.60Q33.67 5.47 33.67 5.31L33.67 5.31Q33.67 5.12 33.78 4.97Q33.89 4.82 34.08 4.73L34.08 4.73Q34.20 4.68 34.36 4.68L34.36 4.68Q34.75 4.68 34.94 5.07L34.94 5.07L37.51 10.16L39.76 5.08Q39.94 4.68 40.31 4.68L40.31 4.68Q40.49 4.68 40.64 4.75L40.64 4.75ZM46.14 4.61Q47.11 4.61 47.88 5.03Q48.65 5.45 49.08 6.25Q49.52 7.06 49.52 8.19L49.52 8.19L49.52 11.63Q49.52 11.94 49.31 12.14Q49.11 12.35 48.80 12.35L48.80 12.35Q48.50 12.35 48.29 12.14Q48.09 11.94 48.09 11.63L48.09 11.63L48.09 8.19Q48.09 7.06 47.48 6.47Q46.87 5.89 45.86 5.89L45.86 5.89Q45.28 5.89 44.79 6.13Q44.31 6.37 44.04 6.78Q43.76 7.18 43.76 7.69L43.76 7.69L43.76 11.63Q43.76 11.94 43.57 12.14Q43.37 12.35 43.05 12.35L43.05 12.35Q42.74 12.35 42.54 12.14Q42.34 11.94 42.34 11.63L42.34 11.63L42.34 5.39Q42.34 5.07 42.54 4.87Q42.74 4.68 43.05 4.68L43.05 4.68Q43.37 4.68 43.57 4.87Q43.76 5.07 43.76 5.39L43.76 5.39L43.76 5.54Q44.21 5.10 44.83 4.85Q45.44 4.61 46.14 4.61L46.14 4.61ZM55.29 4.62Q56.94 4.62 58.03 5.88L58.03 5.88Q58.17 6.03 58.17 6.24L58.17 6.24Q58.17 6.55 57.86 6.76L57.86 6.76Q57.72 6.86 57.54 6.86L57.54 6.86Q57.22 6.86 56.99 6.61L56.99 6.61Q56.64 6.23 56.23 6.05Q55.82 5.88 55.29 5.88L55.29 5.88Q54.21 5.88 53.54 6.60Q52.86 7.32 52.86 8.51L52.86 8.51Q52.86 9.27 53.18 9.86Q53.49 10.46 54.06 10.79Q54.63 11.13 55.36 11.13L55.36 11.13Q56.31 11.13 56.90 10.64L56.90 10.64Q57.16 10.44 57.41 10.44L57.41 10.44Q57.61 10.44 57.78 10.57L57.78 10.57Q58.04 10.79 58.04 11.07L58.04 11.07Q58.04 11.28 57.88 11.45L57.88 11.45Q56.87 12.39 55.36 12.39L55.36 12.39Q54.25 12.39 53.37 11.89Q52.49 11.38 51.99 10.49Q51.49 9.60 51.49 8.51L51.49 8.51Q51.49 7.39 51.98 6.50Q52.46 5.61 53.33 5.12Q54.19 4.62 55.29 4.62L55.29 4.62Z" transform="matrix(4.1987401088830385,0,0,4.1987401088830385,106.34710371320337,9.12176239794875)"/>
    </g>
    <g id="ba87fb41-09a6-4f49-9b23-e3e1a6674519" fill="#14D9D9" stroke="none">
        <path d="M4.029 14.362L14.362 4.028l.707.707L4.736 15.07zM17.135 27.47L27.47 17.135l.707.707-10.333 10.333zM4.029 17.841l.707-.707 10.333 10.334-.707.707zM17.135 4.735l.708-.707L28.176 14.36l-.707.707z" transform="matrix(2.8125,0,0,2.8125,0,0)"/>
        <g>
            <path d="M16 1.414l1.683 1.683L16 4.779l-1.683-1.683L16 1.414M16 0l-3.097 3.097L16 6.194l3.097-3.097L16 0zM16 27.221l1.683 1.683L16 30.586l-1.683-1.683L16 27.221m0-1.415l-3.097 3.097L16 32l3.097-3.097L16 25.806zM3.097 14.317L4.779 16l-1.683 1.683L1.414 16l1.683-1.683m0-1.414L0 16l3.097 3.097L6.194 16l-3.097-3.097zM28.903 14.317L30.586 16l-1.683 1.683L27.221 16l1.682-1.683m0-1.414L25.806 16l3.097 3.097L32 16l-3.097-3.097z" transform="matrix(2.8125,0,0,2.8125,0,0)"/>
        </g>
    </g>
</svg>